<svg xmlns="http://www.w3.org/2000/svg" width="32" height="32" viewBox="0 0 32 32">
    <g fill="none" fill-rule="evenodd">
        <path fill="#4A6EE2" d="M17.28 13.694l12.53 6.992a1 1 0 0 1 0 1.747l-12.53 6.992a3 3 0 0 1-2.924 0l-12.53-6.992a1 1 0 0 1 0-1.747l12.53-6.992a3 3 0 0 1 2.924 0z"/>
        <path fill="#DBE6F1" d="M17.28 8.694l12.53 6.992a1 1 0 0 1 0 1.747l-12.53 6.992a3 3 0 0 1-2.924 0l-12.53-6.992a1 1 0 0 1 0-1.747l12.53-6.992a3 3 0 0 1 2.924 0z"/>
        <path fill="#FFF" d="M16.966 3.38l12.53 6.993a1 1 0 0 1 0 1.746l-12.53 6.992a3 3 0 0 1-2.923 0L1.513 12.12a1 1 0 0 1 0-1.746l12.53-6.993a3 3 0 0 1 2.923 0z"/>
    </g>
</svg>
