<svg xmlns="http://www.w3.org/2000/svg" width="72" height="72" viewBox="0 0 72 72">
    <g fill="none" fill-rule="evenodd" stroke-width="3">
        <g stroke="#EAECF6">
            <rect width="54" height="39" x="1.5" y="1.5" fill="#FFF" rx="6" transform="translate(0 17)"/>
            <path stroke-linecap="square" d="M1.5 44H57M1.5 50H57"/>
            <path fill="#FFF" stroke-linecap="square" d="M70.182 46.357c0 9.113-7.388 16.501-16.502 16.501-9.11 0-16.498-7.388-16.498-16.5 0-9.114 7.388-16.5 16.498-16.5 9.114 0 16.502 7.386 16.502 16.5z"/>
            <g stroke-linecap="round" stroke-linejoin="round">
                <path d="M56.62 43.464c0-1.92-1.293-2.92-2.939-2.92-1.646 0-2.98 1-2.98 2.92s.992 2.32 2.98 3.478c1.985 1.157 2.978 1.556 2.978 3.476 0 1.918-1.332 2.896-2.978 2.896-1.646 0-2.98-.978-2.98-2.896M53.681 38.818v1.521M53.681 53.52v1.519"/>
            </g>
        </g>
        <path stroke="#C4C9D9" stroke-linecap="round" stroke-linejoin="round" d="M28.5 18v20M36 23.105L28.48 15 21 24"/>
    </g>
</svg>
