<svg xmlns="http://www.w3.org/2000/svg" width="18" height="21" viewBox="0 0 18 21">
    <g fill="none" fill-rule="evenodd" stroke="#272A47" stroke-width="1.2" transform="translate(2 2)">
        <ellipse cx="7.065" cy="8.5" rx="2.1" ry="9.1"/>
        <path d="M-.425 13.668c-.856-1.155 1.93-3.895 6.258-6.867 4.3-2.951 7.89-4.591 8.722-3.47.856 1.156-1.93 3.896-6.258 6.868-4.3 2.951-7.89 4.591-8.722 3.47z"/>
        <path d="M14.554 13.669c-.83 1.122-4.422-.518-8.72-3.47C1.505 7.227-1.28 4.486-.426 3.33c.831-1.122 4.423.518 8.721 3.47 4.328 2.972 7.114 5.713 6.258 6.868z"/>
    </g>
</svg>
