<svg xmlns="http://www.w3.org/2000/svg" width="32" height="32" viewBox="0 0 32 32">
    <g fill="none" fill-rule="evenodd" transform="translate(0 2)">
        <path fill="#4A6EE2" d="M26 25.045L32 27V11a4 4 0 0 0-4-4H14a4 4 0 0 0-4 4v10.045a4 4 0 0 0 4 4h12z"/>
        <path fill="#FFF" d="M4.992 18L0 20V4a4 4 0 0 1 4-4h14a4 4 0 0 1 4 4v10a4 4 0 0 1-4 4H4.992z"/>
        <circle cx="11" cy="9" r="6" fill="#4A6EE2"/>
        <path fill="#FFF" fill-rule="nonzero" d="M11.093 6c.565 0 1.024.15 1.377.466.353.308.53.73.53 1.257 0 .43-.115.791-.336 1.073-.079.096-.326.325-.741.685-.168.141-.292.3-.371.457-.097.176-.141.37-.141.58v.15h-.945v-.15c0-.325.053-.606.176-.834.115-.247.45-.607.998-1.09l.15-.168c.16-.202.248-.413.248-.641 0-.308-.089-.545-.257-.721-.176-.176-.432-.264-.75-.264-.397 0-.689.123-.865.378-.16.211-.239.51-.239.897H9c0-.642.185-1.143.556-1.512.371-.378.883-.563 1.537-.563zm-.16 5.143c.186 0 .345.053.469.176a.582.582 0 0 1 .185.448c0 .185-.07.334-.194.457a.665.665 0 0 1-.46.176.635.635 0 0 1-.644-.633c0-.185.062-.334.186-.448a.627.627 0 0 1 .459-.176z"/>
    </g>
</svg>
