<svg width="32" height="25" viewBox="0 0 32 25" fill="none" xmlns="http://www.w3.org/2000/svg">
<path d="M2.4 8.80005C1.07452 8.80005 0 9.87457 0 11.2V22.4C0 23.7255 1.07452 24.8 2.4 24.8H29.6C30.9255 24.8 32 23.7255 32 22.4V11.2C32 9.87457 30.9255 8.80005 29.6 8.80005H2.4Z" fill="#4A6EE2"/>
<path d="M6.39995 13.6001C4.63264 13.6001 3.19995 15.0328 3.19995 16.8001C3.19995 18.5674 4.63264 20.0001 6.39995 20.0001H25.6C27.3673 20.0001 28.8 18.5674 28.8 16.8001C28.8 15.0328 27.3673 13.6001 25.6 13.6001H6.39995Z" fill="#DBE6F1"/>
<path d="M7 3.39941C7 2.29484 7.89543 1.39941 9 1.39941H23C24.1046 1.39941 25 2.29484 25 3.39941V17.3994H7V3.39941Z" fill="white"/>
</svg>
