<svg xmlns="http://www.w3.org/2000/svg" width="13" height="13" viewBox="0 0 13 13">
    <g fill="none" fill-rule="evenodd">
        <path stroke="#4E5491" stroke-linecap="round" stroke-linejoin="round" stroke-width="1.4" d="M4.417 8.65l4.145-4.145"/>
        <path fill="#4E5491" fill-rule="nonzero" d="M9.092 7.9a3.924 3.924 0 1 0-3.924-3.924.7.7 0 1 0 1.4 0A2.524 2.524 0 1 1 9.092 6.5a.7.7 0 0 0 0 1.4zM7.97 9.02a3.924 3.924 0 1 1-3.923-3.923.7.7 0 1 1 0 1.4A2.524 2.524 0 1 0 6.57 9.02a.7.7 0 0 1 1.4 0z"/>
    </g>
</svg>
